<mxfile host="app.diagrams.net" modified="2023-11-05T14:12:42.838Z" agent="Mozilla/5.0 (Macintosh; Intel Mac OS X 10_15_7) AppleWebKit/537.36 (KHTML, like Gecko) Chrome/119.0.0.0 Safari/537.36" etag="jv1DG9aWOxh77nec74ji" version="21.6.8" type="github">
  <diagram name="페이지-1" id="dHtTjX74jyADIkVAMheB">
    <mxGraphModel dx="2081" dy="956" grid="0" gridSize="10" guides="1" tooltips="1" connect="1" arrows="1" fold="1" page="0" pageScale="1" pageWidth="1600" pageHeight="1200" math="0" shadow="0">
      <root>
        <mxCell id="0" />
        <mxCell id="1" parent="0" />
        <mxCell id="yJP6CHm6dHVeqmvsgXed-1" value="VPC" style="points=[[0,0],[0.25,0],[0.5,0],[0.75,0],[1,0],[1,0.25],[1,0.5],[1,0.75],[1,1],[0.75,1],[0.5,1],[0.25,1],[0,1],[0,0.75],[0,0.5],[0,0.25]];outlineConnect=0;gradientColor=none;html=1;whiteSpace=wrap;fontSize=12;fontStyle=0;container=1;pointerEvents=0;collapsible=0;recursiveResize=0;shape=mxgraph.aws4.group;grIcon=mxgraph.aws4.group_vpc;strokeColor=#248814;fillColor=none;verticalAlign=top;align=left;spacingLeft=30;fontColor=#AAB7B8;dashed=0;" vertex="1" parent="1">
          <mxGeometry x="80" y="120" width="605" height="170" as="geometry" />
        </mxCell>
        <mxCell id="yJP6CHm6dHVeqmvsgXed-19" style="edgeStyle=orthogonalEdgeStyle;rounded=0;orthogonalLoop=1;jettySize=auto;html=1;" edge="1" parent="yJP6CHm6dHVeqmvsgXed-1" source="yJP6CHm6dHVeqmvsgXed-4" target="yJP6CHm6dHVeqmvsgXed-7">
          <mxGeometry relative="1" as="geometry" />
        </mxCell>
        <mxCell id="yJP6CHm6dHVeqmvsgXed-4" value="Aurora MySQL" style="shape=image;verticalLabelPosition=bottom;labelBackgroundColor=default;verticalAlign=top;aspect=fixed;imageAspect=0;image=data:image/png,iVBORw0KGgoAAAANSUhEUgAAAHoAAAB4CAYAAAA9kebvAAAAAXNSR0IArs4c6QAAAHhlWElmTU0AKgAAAAgABAEaAAUAAAABAAAAPgEbAAUAAAABAAAARgEoAAMAAAABAAIAAIdpAAQAAAABAAAATgAAAAAAAACQAAAAAQAAAJAAAAABAAOgAQADAAAAAQABAACgAgAEAAAAAQAAAHqgAwAEAAAAAQAAAHgAAAAADlN9iAAAAAlwSFlzAAAWJQAAFiUBSVIk8AAAFIJJREFUeAHtXQl0JFUVfZ10ku6kk3T2pDNZZrLMwgyLCigqsguCekRFPQwiKKsLHERZRAdEBQEBF1DOEQGPRxE3cFTcN0QFZJuFmcxMJstksiedtZN0dxLf/c3vrq50Zqq7qzrVPfXOqVRXpZb//636//337ntlI5bnWl5dxNqSzGyBE/ceY8vKzKpZtVK3gAW0ukUydNsCOkOBVVfLAlrdIhm6bQGdocCqq2UBrW6RDN22gM5QYNXVsoBWt0iGbltAZyiw6mpZQKtbJEO3LaAzFFh1tSyg1S2SodsW0BkKrLpaFtDqFsnQbQvoDAVWXS0LaHWLZOi2BXSGAquulgW0ukUydNueofVKuFrOtQ4qPatYnO9rmyHvHycSvpaZTrSAVqGRv85BtZ+uEnuHt3ozBmir61YBnambFtCZiqyqXhbQqgbJ1M0jfoze9HQr5Xpyw/jassM/qexdbio5I6SYyb0737uHZjv9cjNt1kc80FmOLMp2xu7YbNk2/p8tGsws1Xb0f027FbuGpi2uVbBEW+CIf6N3vHsPkeItLXtXMTV+eZVoz9Hfj1HHLQej2nZ+cj5qO102TAV0dnE25VblUE65nbK4O81y2Cgrj9e5NloILNLCHC8zC7Qwu0BB7zz5+/xinUxjz08tRJ0+z9eXgnvOT6QnsLIOcr0iQOfV5VL+egflr3OKtbPZIQDGeBmvLPgXyN8foLkDfvK9NkPTO0PLXFf6KUzx1j2e41MCdBYrNMUnF1HJaUVU9BYX5VbnxFPGQx6blZtFjvo8sRS/tTB8bHAsSBP/naKxv0+S9y8TND+eGW9muIJx/jAU6PwNTqq6qIxKz3FTdv6h39bFxUUKjs1TYCjI6yBhLJz3LdAid5+E3pRPt+WwFgwtuTCb7NzN51TmkL0km2yKMVbW3+62U+nZbrGgCx772wQN/niEJv49JQ+JucbUafCJEfG/6VdnYh6TjjvFXEHv+GhnSx7V3eAh98mRN0zZOMHxIE297KPpHTPk2z1Ds/vnaJa73kUeg+MVgJ+3KpccjTwcYCjgh6vwjfk8zsfuNaa2+ejAXX00+fx0vLdK2+MRH6070DVXVtKqz1SRzR493/TtmaXRp8dEV+rjcdRocTTlkfsdheKNdh2bv+R2g4+PUNftvaEeY8l/M2uH7kCv+Xodlb+vJNxKi/OLNPLbMRp4bJimtxsPbvjGqh+ONXliCKn4QKnQ4uW/J1+YoraPd7AWH39PIq+RDmtdMx7gTVaCjEbcft4e2n/9gRUFGUBgaOi6rZe2ndlG3j+Nh7EpPN5FjbeH5szhnRn649AaksZK293Z5LmqMnz0wE9GaNfm/TTbPhfeZ4YfmIbt/WQXHfhGX7g45e8tEeN6eIdOP4pOctGmP6wVS8OttTpdNfHL6AK0m6dN0l4MZafrVrYmmbg37HtoiEb/EHmzS84sSrwFlzkzi2cZztV5YsmtMnRys0wJonfrAnRebcT7M/k/1mZNDLKs/sRzkWmWnvN6eX2zrXUBWlmpktOLhOlSuc90v3lCUHaOwv0YPUEwXXH1KJDufYqjIY+aH2ik9mu6SG1H1qPAyV4D8+7G22sJipieUnhiAWW7Is5s1zGRKR3m9G5+AZQy+fwUG4UidnXl/4z4rTvQKKT77YW0cWsrdX21l8b+bB4WZeHxBdTwJQ/lr3Xq3pYNX6yl/FZHzOsC9NbvNkb9b+f5e4XBKGqngRuGAI3yYtxufbCRnQw+6ud59OjT4wlZvpKuO79ksLFXXVRORW/W9y1OumwpvIDuQE9wl+RkA4U0QRYclU9Nd9VT45Z5tjdPsmVsgib+MyVs2kbVE+7OIu5K3acUiS4zpyS6mvNT8zTJJlj0PHrJ5IvTwosmrwdXawGbYyGBkaDwqsn/YR1MsV87ugWUJUnw9+QL07T3qk7yfLKKKj9UStkFoXEL67Lz3GLBpeFWnN7hI1/bbMjW3TUnGgp+Zq0i/dd59bB157Gt20EFRzkJljBbyLobdSm4NEd+PUY99/dT8dsKdQW6a0s0QcF9RpHo0VCAqVfQJl1RZUn1hu5AowJQMg7c2Ue9Dw5SxQWlVP4et3A4KCsHnzSW0nOUe9lR9bqzP+y9Ci4STKnwUEGRAhlBeq/gotQis91zNLJ1jAbZkBMYDGo5JeOOMQRo2UpgZ/R/f0gswslwasgfXfhG1lCXcVtmAcwyO+XwkqjgzZ16xSeGiPF/TKZU6Um0zEafl3hrxlkymEP720OgE/fmziZmmGzghTVgB3e9eLtzWYGzs69Zq8Bf7e/1i2FgtttPM+whm2aWCdbCj631QkfAcSkDOqoteRgGGFhGaCzqX+ieYTvHAr4YtrEsogvnbh28sSCzRYLeIC36V84El1WQxbMIJkYsMxJMsXK266J2Ubd49I6oxtBxY2WAPkQFACZYJljMKu5TC6n5O40UZG16x/v2irW6rAB38jnzkBu0aTPqWhzh25g9QJeAjbyYOXDpIBbQCaBkL410hPZS7TpFArfS7RQL6ASaUjkjkIahBC6T0lMsoONsbiiGDp4xSAE/PR3EAjpOlGB5w/gspWATe6kim3K36dYW0HFCAtOmUnJ4vHa9IeKSVP7PTL91Bxpz30yW0rMVhIXXK4oABbOL7qiU8BOPccz0kkDNi08pFKE/qBvs71Iqzi8hGFDMLLqXDl6kpnvqmMBv3mrn1uaQh+nJ8UrNpRXhU/ofGaaZfbNiG8ySSnbemFl0BxqVRVe2/qfNhJxdZhMYOzb+qiX8ZmotX/HbXWHiApwm/Y8OUR87bKSA157tMqQ55S2SWhtWMhdroxufbKE1d9eRk/3EKyo8kkCJ2vDzZmq6t57t6PF1NxiK6m70hKsw/CuvcHeO/NpLcwdD4bkgN8j8ZOEDTfQjvhprKDiC5hzMZxYOCc4BAoI8lqlXfSI8x/vncfL3BDRcKclDGNyCo50iC2DZu0uWhOoKHzeXT4t4rq6k/JbQwxpk12vPff3iNDg0ur/WSy1MhoRUXVwuKFNwkZpNdAcascjDT3qZhFcbxeAAQQ5Lw80emmU2CZgoiKj07eKIyr3sVkwgklLZmKDuOJmcB5ZJ4QkuZnkWxHR5gtiAWDB/v58abjl8BAUC9DxXRMZzgBwcjbBgvH+aoLF/TorIUZAj1txVJxwdC9OpY3gq22G537oDjRsh28AeDl4r2OikmssrCJEcSjYIKMFYEPQGQWx0YCBA8CmDARIYCdAC+5oR/IZUE0hlAWYQMiLYkOoizyaICTmcBiO30i7SR6l5YeLCij/gaA09Mcpj67C4VzlryocTO5Mfmr/dEI4MBR8OLBW1dG7poY1PtZK9KFtQmpoYbIT+mEkMAVpWEPHP+z7TTdncAKVMmC85s1i8aTJ8Rx4HflduNRMPeNFTEIc9/uwUjf6Ow3WZmBgPGQFZGlq/1yhSbqBMgdEgtX+2OxSUryqk/2CAOm4+QC3suoSgnquur6aee0JdvNi5wn8MBVrWDZSioZ+OigWKjes47sa5S8Qbj8B1UIOR0ysZATEBQwIYJj5+wMDKFKG6kemu5sujjC1MVZYkfIzn+6/v5p5geR85sgD3PzZE1ReHpmCeyytFBgdQqcwgKQFaWVG8Vcg2oMw4gDk3aEQOphPlVITSVcAViK4aGYlsvCCeC4ySBSw+ToHBjn2wTEBQAKN0jilFFBk6lbeM+RsKU+dtIeYmwmqlIDiu5cEGKj4pQgXu/NJBGv9XJFZLHqted3+tT/RKpe8MWc/qP18jyg+S5EpLyoGOVWForxjXU5lJSKTTUACMcuXweC/e5KMjtmtQg4d+Nhqr2Ev38cPYfl032R9ZTUWsEEJWXVst0mkhaiWeB3HpxZPbY9g8Orlipf5s15sK6Cg2pLgUICOOOt63ET3Wnss6uAeYDFeianM5rXtsDUG5Wyk54oEWxpDPVdP6H62hXB42IBiTO77QQ4ijTkQWZhjsyzto5DcR4iPe8E2/a6VSzky4EnJEA13CYymy+9ZcVhlOYRUYDlDbpR3au+tlUMNwhG78wL39YQcIpoDN9zdQ68OrCZmbUikr15ekspaKe0Hxgy2++pJy1vojYzEOQXA8wNGTgdr3vUEC9RemV6S/hCDmq/ikVv6MwzjBOZIKS9oRAXSuJ4fABHGzmxGB+mpbd4C19wN399Hwz70CCL3/wAq47ew2oZhVbS4TU0lMJ/HAYZnZPyu+3YHgQ6S4NCL/qO5A20wwGGCeXndjjXiDAOpy4T+I9BjiLIEHHxg0PIUkTKLdrHkP/3KUalkTx0MnAwGdaxzkvNIRdp0icyJs6r7ds0JX0CO9pe5Au44t0PuFiPt6mNIUHnfocsAD1X1HrzBqxH2DJE7w7ZqlvVd0ijG66b6GmMHzeDixIMcpegPY5pMV3d8/JHWtvLAs2XIldb4yEc1yFyrjCE84XlLO4mTbT8lZRbT6zrqYICvLK4MFlfsS/a37G42CNG6pFWZNeHrisS8nWgn1eZj7wr4Npwc0XSe7GGFuLeSMB9LOjjESJITSc4u5O/WK/KBGx0jlM4O08bbaqLm6LLufnTp4QGG2haUPdvrZjrkoT5k8NpG1IUCjIDWfqCCYAnu+1R+aT8ZhnkykIupzkKU3/JGT34dyitnY64X8oJUfKSOZ8hnjZMX7S4WS1n0HK2TcpestuC/MoejplJmI4ZUbfspLw7/wGq55C09Cstl9wayQ7AqkjVBm50GjIWPfECsho2xAmNkXsSvr3aCxrgd+GLxLagHNqe46Voo4ZlspABpuR73ygyLrcPO3eCzmzMNS0CVj3AUVyeheBPfULemrEuiDDwyIrqf+phrOqb20w0D2gfFnJsPEA3/fUhBkg8S95scW7BbkDkE6KKSvQPjMSyfu5E80xHZjIZXjas4HivhsKSBCwIzp702ubIi6xPxZpvfA9cf+MUGdnFkx1sMn76/3GkAvRUKHu2DMgzGgkm281UyvUcYqiWz5F3K23QvLxZ0wFiGPyRyTDjA2YawKDAdD385g0oEkHuBg4c0C8YDTW0ArRepFQT7gqEYxReG3VI7BymqA+DD620hKSOX/kKh9O39Apf5m7lovCCmRoA1teLyZLWT7E+6BkAB39VdXhUkLqEf3V3qTtrgpyx7Pb0OARgGQTA5Wof6Hh6iYx0Xwxoo5UbsaCLz1wtNzQjzF1n7s/PQ8s1BCFqnlzgKbpZO/hgNqE5QlsGEQErv+x020+2Md4lsdy50baz++OlB/iyc8T57r8TPjpJNpUyF6cKxzjN5nGNCy4NC6kVQOiyAdcPgKFCEQD0A6AP1GTwETBDw0kBERiI7cpFo1fyhF6FlaH2oUegZ6jbVsl37tgn2it9FSTmjySpBBhGi7ZH9KxuJDlc9woJU3R4OLxldkAsDYCIUlj40D+J1bwcYCJh3YeVoEixZIB3hA8F2NBU4lASUJ2iqUPjA+QPITX8lhhQsMVK1ZhwBIw5YQhRdeJuTzhsBAgRTU6x5dLYYHDDtr2b8MsJWkQGW95G8x3nNyemnxmnxpOpT43QREwZQCLRtEuRbsEB6bORuXcrfhv/EASWUR39hSCj6r1HZZp/Ah42GDXgGlqu2SDsF0UR4rf6Orb7qvPhxpiYcOCp1Z2KDRNZSlttY0zV1/+7VdgqGK5gC1SJl8PqqJePQByJKJCoUSn3BIZVLXqPLE2LCAjtEoche+mXXw2wNyU9gKYGFTC3jfyJ0GwRx536e7dHV1qu+XyLYF9GFarfc7gwQ+NwRm0wY27ypFHbDXc/+A4VYu5f21/tYFaFBtpYC1mQ6iLKey/LHK3nFTj5jP43+gAFd8MBI52fAFj5jf438gEPT/IDH6Ec43UnQBWgaaoaBF+GxgGmCNub2Uw1nAoDD2PRSh7Ho+xdQjVmPhpJAfEke0CSxe4qt78sImWusC9DjHHmFsgsD8WHdDjYmquLQoMGiUnB4h6Xk1JI/Hm+ofDJlE82o4We25buaaReKlkVQW2rpZRReg8U3JqFhhDhhv/iaHp/J3I80kCLNp+KKHl8g4O8yhr0hVeTjB/L3/kUi3vOqaauGdk+f1fjfyxst9ZlrrAjQqBO0UBnsp4EIdzd99qmZ35UqnfYDBpeLDpaI8yMQvBVarzi3c3WoUBOmBfgTB9zBlGBE43Gb7xpe6SroBjSiEvVd3CXekvAlMiPDDHvfMemFDRihrKsdvjKEYRo7l+6/mr7wrg/jG2IO2e3N7XAYNzIvH/hp5mGU9jfBhy2vrtRZqU7L+aHVhkLmnnuOgY31PCrbo8Wdfd1O+5KOZdu429SAlcE2QPwU2dDxQcFHGuj+8ZT3MtR78icYwG1XlUDf4l6Ug3vpldoOa8YtAsoyGuSlHmdHh5ScfTI7qj5ZH+XqRl6ucMxBggUCJQ7eHSEjhpuT46CA/DMKezd0k1giSh8lSuCnZXAkPGMZ/fD8akZiwlTuYSbkc2xP3ATF/gL8fPcDx0cmAouajQQFL5nooWyrEMFs3Ih/Bohj44TB7q1yE9BLu0wrD9mVZObgE89dz+CwvegtclIiCHNnqjTs+ermygBEy1+cnaN4Q8LDTQQwDOlx5tqWgsUXYKWsEIsUFmwtdm5yCVA+lRi+BjXl6e+gD5PAcTb3o0+yijKcM6Hkk0PA1p4MYD7SyFVhhhXMfixR0wRhbEU2R52E3Ja+RMRcsEniVQqwSWyguWqS5YDclr9G9zzENCZ9aAB1ptnMuZfZlJaEeZPt0kNQCHaNF0BVOeRn4l2P806S7QH1C+gqIljm4Gaqx4kCboRHiLQOMIwG2kqFHmd5mjdHxtl/aHA+mzODjiU3PVqqS+hlMVqoG1n01tYAFtKZmSv+DLKDTH0NNNbCA1tRM6X+QBXT6Y6ipBhbQmpop/Q+ygE5/DDXVwAJaUzOl/0EW0OmPoaYaWEBraqb0P8gCOv0x1FQDC2hNzZT+B1lApz+GmmpgAa2pmdL/IAvo9MdQUw0soDU1U/ofZAGd/hhqqoEFtKZmSv+D/g8XRXzg14brkwAAAABJRU5ErkJggg==;" vertex="1" parent="yJP6CHm6dHVeqmvsgXed-1">
          <mxGeometry x="40" y="40" width="81.34" height="80" as="geometry" />
        </mxCell>
        <mxCell id="yJP6CHm6dHVeqmvsgXed-14" style="edgeStyle=orthogonalEdgeStyle;rounded=0;orthogonalLoop=1;jettySize=auto;html=1;" edge="1" parent="yJP6CHm6dHVeqmvsgXed-1" source="yJP6CHm6dHVeqmvsgXed-7" target="yJP6CHm6dHVeqmvsgXed-8">
          <mxGeometry relative="1" as="geometry" />
        </mxCell>
        <mxCell id="yJP6CHm6dHVeqmvsgXed-7" value="Amazon MSK Connect" style="shape=image;verticalLabelPosition=bottom;labelBackgroundColor=default;verticalAlign=top;aspect=fixed;imageAspect=0;image=data:image/png,iVBORw0KGgoAAAANSUhEUgAAAEoAAABKCAYAAAAc0MJxAAAAAXNSR0IArs4c6QAAAHhlWElmTU0AKgAAAAgABAEaAAUAAAABAAAAPgEbAAUAAAABAAAARgEoAAMAAAABAAIAAIdpAAQAAAABAAAATgAAAAAAAACQAAAAAQAAAJAAAAABAAOgAQADAAAAAQABAACgAgAEAAAAAQAAAEqgAwAEAAAAAQAAAEoAAAAA7EA96QAAAAlwSFlzAAAWJQAAFiUBSVIk8AAADupJREFUeAHtmwtwlNUVx8+3mwBJAC2tSsFHLaij+Ooooi1apUgIjzCjOLZTB6qoVaeKKAlvWB4CSXBQtNpalVGwTqtOJbwCRLA+C5TxNcoUg0AVWq2KYBIIIbn9nS97N99udje7G7KLM7nDcl/nnHvO/57v3vPd+0WkI3Ug0IFABwIdCHznEXCOFwsCI01ujiOD/SJnqU4NIh8fMlIZWOnUHg86ZhyoG8T4BxTKFCNS7DjSzQuKMfItCpZuLpcFL4gDdplLGQUq0M906tpXyjE/vxUI1lVXSWHgQ+dIK3Tt1u1rN8kJCM7rIw9CFgIJD/qosVEW60/LHhH5QVpPU3qLGfOo0hHmLJ9ftmMuy5IIwASKymWOiMNT6LY4ZYUyi8dxVlNdGhob5NziVc7HwXpas4x5lOOTX2KpBWltUbkzuxkkxcAxtAUAcG0QEX+QJ1hNb5YxoMSRi6ypgLHMllvkRpaH2jw8obY0FTIHlJG8kI2O7A+VIwrGka9DTV6eUGN6ChkDirXnM2siC2V/W47MvX1enki69q5nDKhGI+tDxjkyft4Qc1qoHiy4bfTZ9jAe25imPGO73u2XmOyzexMCONI3aOun7GpFtQ1Ni3euXwrYFcvoawLQSNWOvXLeE9uc+jRhEzZMxoBSLcpGmCvYyTYBVucwrSIrRuqONsigyaudtyK70lXP2KOnBjb6ZA9ZXQLG1jl+2Z0AXbuRZBQoBn8Yb+qu1hFl7iFM2EqxOvjbom3apzQurVvJzH8Ze/TKCs1wdrFVrtlGDAv1NcUrnb97YVhUaK6i/ipAuXoC5AiC0NVemnSVM+JRZUNMHqb/3mPk0kiQtG9iufMa2dIQHTwub6ghfYWMAGW6yGxc5Aw1Ey/5X3WdFMUyWfuURvtdnhwJxKJtz/Z2ASpwtcmacIXJiaZ46TBzMQaHYiNege8PrHOao+8IJu1TmlCzkXtVRqjuKeiYOran6ZgV3Wf/WEgrKTCnOlkylO1+KPIGI3j2xBXOYq/sgBhf11HyNm2XaTuespE15xdemljlRaNMJX2Wdkv1CrkiIE6jlx6aCdRnIreS3aGijt/0Vc5eL02q5ZTR10O3nDPlSoJCBWYowJwfpoSRAuphQOUVyl20uSBhSJ1plDvCeOJUCEbvZBLeZwPoojJcWeXyqJeFXVL1OBGa0Tyno5UQ8D4AuAoFruYTeSPVw7+kPGrBcPPjbPUYRwpQ6hoUan6xRSkU2o/ASqa5gv6KSeXOPmtISaHpxZnKdnibwgEjM/GmubY/kZydcgZjznFpjRzkbPhc7xjzRpjenXySjw4F0A2G7kSvXPSrYfyN5Gt5nCuKVjq7vP3xygkBxTZ9B4bfx+Duwb8VSFsjM7WNekVDg1RsWy2bY51tl40yLzLY9coL3/aaKrk42dlVL87rK+8i59ygnJeKVjijtRyZ9Cy+f6FcTrt6mf4uASSysLQDZRazu/4hrDVKJZIxCgmn+4XmFp8jT4V1GnmnvkFGT1ntfBLWHqVSOtKM8PlkpdtFzER+dXDrj0IdvykytuLYeCShRVM8Foe1tMD0cTqJTlbYRsDjfyueFW5bFDkJARUoMN3zsuVzPEof+1DC4q9w49JaI4/GulZy454u8hG8p7uMRp4GpHEhISkUAOspfOMWZUWHPXJI+hWtd2qiidJrsFxHfsf4xRj7fS8Nuh9uqJWekyudA972aOWEwoPAWucgA62IFKAD42klXR35BK8bz9YcBqTSN3aRE8iqtIxicWMmpUkkeWMrkNoZHCOMVXVRnVQ31TESpCBxeSIgKW1CHqWE3scHg6fCOQ7mPtoXSkb2spA/ULVXnow8DikdZcYwK7WEDC+G6NtQYDcbzVi5xSucZ71idB3L7SPjGGsaOvb29uF9OwH2KSZ9vrYn+tgqbcJAaSCX1132MchJDFBU+608RP1mZEynremxUolNaTfvbnNrD8qzgVedo7axPXPVL7e7jEGXmRh1hncsJvbf1OfVHJSlud3kXtbLMgD7kvOtXpET6uXzlhMGSpmYxSVkdzPw+2ztF2mbO4N95Ta226ko2UvbQonDNrbwwKFyeT4yOAzRtLEQIIjNKZRf+RmHae/rFYee+zhzn19bJX+yOywhxnvoeSF9j2LD3V76eOWkgCoZYS7z+2WzCmSgixjofStc1wQ87C6UnYTQk227S0s4AP2s4nLhsQPSY5KMU1ooozF6NuO54YIVywBf4DEleNBjePRh2w5IF0L/ntYJZwZMWuVssX2t5UkBpcLwqn+RnY0yi4hhWrzMBne5e1BoInQ9lCeUjLyHh80kSNRr9JQTwWshHjSHSXG92iPoayZkkRyWJdF2QWK5MgxWvXawVp7j4Wu1mDxQhWY6Cs5FoX015XJarEcqGFJMgHYCg+jOF0rwbm1wZMbkFc66UGMChYWjTL6ftY9J6O8lZ9IO4EGLa+plse7Q3j5b1keU155P4e3F+Em/FSQNVNlIcyaD7QQAfYauxav0ZTVm4rXne1l+KYJH14OuXkIUfpOdawYetsnbHlnGg65hF1OAfhbRV42MRzhPLyPw3R/RF1bFm/RFfQOAGnj6JPP6ooKSBkqZCPheh3MgAz7LOjVW2zQRtyzCoG5E7JMjFZ9fYE7KzpbJGHsnpDkuQ/A/5GxkzZgReXmwcLj5KWuiAjTIS0/5EDyP19fLwqlrHfesyvbrxGT7ZSGL+EHv0sD69AxyxgDUGwS8V1r6RPNUTw+W4U0XMEjoHGlBofkJgd29tPlRdNTCkeayySsd3ZbdFDTo/gfyzaJOnd047HZmqZN2KhBZWTIIYyrUw7Qt6EFDtWwTYx7B0CeO1Mn8aeuc/9h2mzPm6VmObGEST0F2A+dWzxWvcd7Vfur74T9AvszSJ5PDl3zSHe6rHDGPrHXcG5Tg8/8PDHbXDma7Ek+7Np5kvdzs3MUF5Wb44k4Y8jQWW1p3WOZOX+98Gk8uYG9A3mClgW8r6+jldh1VvbXduxNqPZGUElCRgona7yaIW6LtKHcYqy6YUu5URdJFq+vRDWvYTIy7iX42s7DUgLzlrEFzEnn5Vk48uy+of4A8FxSC43t4aX4kTGoKlTYDpWdAnX2yHcW66fi493TWhgeS1YUF+xxQelLXPpeXtYRQ4lYWeg1Hkkos3NMwbJ7LxLnV4UY5r60nnSwFbUuAtMQDkp4zlaUiUQEB5Fcsr5ZTAUn5VQf49SM1XZy6q45uuQ3/tQkorsRHAtJ17vi67R6V39pXhTbo1GZW1UF10VBAhamOqmtbBKcMlBuB+zxn1hzsFa92Xm+LMseS19XFe9iIrm25E0wZKJbKOcyUe2rAtH1RfVgmHUtDj4Us1Ul1U1muruicqtyUgNKYiYHH20E5Urkv3t2cpUt3rjqpbnZc1Vl1t/Vk8rjxiwp6oNCcAtFgn5FTmZ1a3lv+SbMuju5WzvZdyaL7nNIej0l1I7b6DSANRj8/tvyR9Wo8kful7Iy5jXz5RzhTOa3c+Tye/jGB4qz5B3kO34ET3yDQp6Et/8JSMGbSV5LjOgHEnVmmKbYCsP5M8VvWFp1tHqtGwFxWY2QiZ/9fRjMm6qO3aJg5A5C2IHSMC1I0Tm1zZEOigWUsEelod3VE11hjqY3YOlZtVtuj0bUASu/DTLa8DOOZlgHP2chjV6LvWXZx1D4GGKln15bueM15Wb9BdbX6uTY02VKittl2tVltVwxsm81bPHpcGo5FqHv3pY8W917X89cCaywD70v3550gf4FmmLZBU4rgv8W6+LR8mcrVaF7WS+34gLSm5oDcyPtetW3jryiGcV3/EkB1UdsVgxfK5Wnbr3kLoCD8tSVA6CwvSNquAwDWjYC1E9qTdRb466jbLhX35NOyJpw3HpFdUyqc3fEY9AyMRfdH8Whi9eEaepLp8qonRYKkfGojXjcLe0q0Tq4YxAcKqtDxan1d9CMJBYvFbwW0t6lg8sdb+Krb0fp/vk4yG6pAXErWD3/z38TEJY3XyY79steTvLSAuJy6C5QXA0vTYo1iHQp9eAFQsU8NvX9RYKUd5zkhQUx7Dh1sPlvzYmBNivbofUZnXyXIzXPPl163xGG5oQ8fdROXBuShQ7xga0IZIna1RujSGD6zTi31CHmI6hwjBW11exlPMQhLLYAC9fUQukDx7dN8PpwfFHlJ6C5+zcezDZze5bcWsIWNmmSFo9tnYNFf0kkD5s4ie2H0s54OUt0j11394wA+z15ghSsGtmzzFkBxDv1wdpbcjtAsZmLgWb1lU2lPM6W2RrbmdJcegKgB6GwrgF1veXuCZMdJNVfdWE+XY89YlaG7my7cuibp46aepCDR715cYM9RdvqHIsdrsUZNXePsAIjJllAF+LLkta4nyCEW1L3uBw/NX7XsrqlrfpeyPK3lC0eY0IbRGm1kfyq8QR13qyzs6aI2qC1qk9pmQXL7sR2P+1jL3tQCKO3E1R9kQZuo6HqJw8p8H3W0UX6e7Muw3tRw9LuNm5ymc6wwofErHDlfr7wqIz5leK+rY71cjU3vhPc011xbsdm1vbk5VIoKlPYqQ/1R6YeLPsYAVfz0IuEb8k28kY/jA4cB3luWkMQ4Bf1ql9nUqyI/68DzetcWhzysy72X88mflRePHxjrq+MwJk9l4hpnj+qsuqsNdKktdfyq1EYet/NigaRiGDO9KZBvenTtLK8xcj9GrkbJwZyxb1YtWEsCPAaztMwMz+YmJ6BlQBqAQa/Ql0f+Id9HXZWsJ6uctqSYHtUWofF41UAuDYYAxC7o+M5L1nAfp6BFTWXDzflKoyApj/KmGyRVLO0eZdFwv6nMljcAoCcA7MNTBqLNWK9H0fYMu9Sb8PwQmv+aehlYvNbZaWWkM0+7R1njggbnU/8GcHpxKLQBoHrafi3TXkldQdrfcFSGZAok1SljHmUBCX5foLe7ubbNmwNSDR9pX1u0ynnb257ucsY8yhqqH2bwCZCGCvW2zeYs9EcA6rpMg6T6ZBwoVUK/k2J7vglgGrWuScuAdBPX4S1eJ5oo0vv/cQGUmsz3Sn/lGKT5/N3IHcXlzgvpheM7NBqHdJOIvIu/Qyp3qNqBQAcCHQhkHIH/AwxOZthbi6SjAAAAAElFTkSuQmCC;" vertex="1" parent="yJP6CHm6dHVeqmvsgXed-1">
          <mxGeometry x="200" y="52" width="57" height="57" as="geometry" />
        </mxCell>
        <mxCell id="yJP6CHm6dHVeqmvsgXed-15" value="" style="edgeStyle=orthogonalEdgeStyle;rounded=0;orthogonalLoop=1;jettySize=auto;html=1;" edge="1" parent="yJP6CHm6dHVeqmvsgXed-1" source="yJP6CHm6dHVeqmvsgXed-8" target="yJP6CHm6dHVeqmvsgXed-10">
          <mxGeometry relative="1" as="geometry" />
        </mxCell>
        <mxCell id="yJP6CHm6dHVeqmvsgXed-8" value="Amazon MSK" style="shape=image;verticalLabelPosition=bottom;labelBackgroundColor=default;verticalAlign=top;aspect=fixed;imageAspect=0;image=data:image/png,iVBORw0KGgoAAAANSUhEUgAAAHgAAAB6CAYAAAB0rJfZAAAAAXNSR0IArs4c6QAAAHhlWElmTU0AKgAAAAgABAEaAAUAAAABAAAAPgEbAAUAAAABAAAARgEoAAMAAAABAAIAAIdpAAQAAAABAAAATgAAAAAAAACQAAAAAQAAAJAAAAABAAOgAQADAAAAAQABAACgAgAEAAAAAQAAAHigAwAEAAAAAQAAAHoAAAAAoK++LwAAAAlwSFlzAAAWJQAAFiUBSVIk8AAAEehJREFUeAHtnQe0FcUZxz86CCJSlKYioCCIIAqKDQREsAQ0okfTTE5MT0xMMZqY49EUTdQk5phikmOLGjWxIfZCMzZQUKoiKAKKCkgRUFHy/e4w7Nzllt337r57d9zvnPd2dnd2p/x3vvnazBXJyOseaHTF+G3bvG7hp7xxjT/l7fe++RnAnkOcAZwB7HkPeN68bARnAHveA543LxvBGcCe94DnzctGcAaw5z3gefOyEZwB7HkPeN68bARnAHveA543LxvBGcCe94DnzctGcAaw5z3gefOyEZwB7HkPeN68bAR7DnBTz9snbfcQ2fsgkV12E9m0TmTZiyLr3/a91UH7vAW4ZRuRUV8X6XOUSKNGQYNJLZoh8uhfRbZszL/u45mXAAPumZeLtO9WGDJA77SvyK3n+w+yl3PwyK8F4BLW/+qzIk/fIbJYjzbMH/AZ4b6TdyN4144ifY82sAHmvTqSFz8dwNj7MJHP/NSwbUby9Jv8npO9G8EIVHbOXTorH1xgXvyMyJKZBnDy7XVgAL6PKe8ARlq29O7rNpV/fHdZcN66XZD2MeUdwKhCljruY1P5x07OdTd/fi4/zrwDeNlLgSC17yEi+x+RD9R+w0S4DjFHk99n8k7I2vCOmWf3O9zMxSf9WIS5GHbNiAZcO0cjXftu9PAO4FZtRbr1DcYkYPY81PwFV02qq+ZrpXP2Zoeth/Ok/dw7Fn3ct9QsuV1w+mCTyCcf50PEOdchBLIx3zZpX/97NYL7jxSBNUM5HfgyZc3LlC0PFkFaRqBa+rwaQbqLTLzEsOreQ0V4bt7j5jnf/nsDMAaOY78awPPCZONY4EoYvPfXijx/n8ghJ5v8PIewxfztGzX2pUFjvyfSYhfTmjUr1EJ1Y+mWzVAL1urlJg/PjdPnfSQvAB58knEJAhBz7AN/ENn6YWm4uE8+O0fvNUBk8PYRXfrJdN1NPcA4DY76QtDpz/xH5K1XgvNSqVWLRchv6Wh9D/OzT5RqgBtp7cd9X6RZCwPJqlfVa3R7PHieuk0EoKGmzc37eK8vlOqmHHaaSOf9DBRbP8pnuVEB2vaJyP0OS+/cW+Tw06M+Xfv5Ugvwnr1Ehp0RdPCMf6nQ9EZw3riJiP0LrpqUvc4RWqPCFm5DS4dPFOH9PlDTNDaiSTPDSi1Ay+eJzLo3vyXnKqu296+cENzrNURkws/M+YbVIjcpi9+8QdWmSSL4inEf8hys/6bzRD5WzpBmSuUIRhjqsJfp9g83K2v+o6bVcVCOCOXB0gUhPU++0oBrrog8eLUI74N4P+WknVIHcPf++erME/+M7jAgRKf17gYyhKsV8/Phw/HwxD+Ca6hNaQ8ISBXAzVqKYNDY4Q16TmTuowEgpVK4CW0oz+tzTIxWofxzHzMxXNyjHMpr3qpQznRcSxXAmBR329N07Ob1Ig9fE62TcSqM/obJ+/57KjX/XtMlWDrv3aTvh4irdk2g5mp6/qcG4J4qHA0YHXTsI39REBSsKDT6m8ZzlFOJrir/HE6JR/X9lg4cJdJLnRJppFQA3GrXfLfe/KkirzwVvbuth2mdzrHLQ/Nusbfw/vlTgrtjVDjD15w2SgXAjEAbHIdq8/i18bqZDwJq11nkyLNMOsr/x/+uHqZ3TU58zFYCj/JsreSpeYAPGB7EVeHjfehP6rB/P173TVFJ2wbXDZkg0l113ShEOahOlAvBCfqNyCVT86+mAW7TQWTkOUFfznlA5PXZwXnUFAIZ6hSUs1+fq67F1ua83H8Wq82+P8hFffA9p4VqGmBUFIwT0NqVIlOvzyXr9G/htCDgvW2nQKqO8rJpN6g5c4XJyYdx/HejPFUbeWoW4EEniOwz0HRSVB9vuS5lRaG1VKETw/6jUNh3TL0OPjHKk9XPU3VbdGOtwcDjTVxUx70NCyWOaveuQec8e6fImy8H51FS1hji5kVgwqkwShenQRyRqqOE6uBjph44IqCjvyhyoKpt1Bn1izrPf0JkzoNqv95q8tTC/6oCjGR66kU7e2722DfomreXiDz17+A8amrajeZjCeefrfN4Y+VbTdT3C7XXDykKwOSlHsRV79nT+KB31FOdE3if+Os3UuSuS0WI+6oFqhrACDsTLswHNyetqsTqOtzx7BQajeU6b+bdRXLo+wm4qwtRDz4Ol6yEbesI+LTrlvPNyHbzViNdNYBRN7rsb5oMS5t6nchLalfe9rGuytf5EfaJDZjVCAPHGXdeNTrILZN6dOphrny0ReSxa0UWTjcfJFa24WcrZ1BXJkEIhOJGtZO7ZVQ6XTWAXQHnyVtECHO1xFyGrRifLER4q/UCmSvV+d/nyKBcwHXDcak/IT/HfMnkQYj7VAPsBrehwoSJfTRyniNliRj8h54azlG9c4QqRm6YFqjFzAJs/dXhPA19rt1XHaKTLLlzbt41nfNqkrReBeus8oIlt332WjWOVWPRq5fpyFSDA8T8BZt2qf+oQLjCyPHiw+7d6qQHHGf2/kCgwsPkWriokevtcheZV6e2ptSqATxP51m7TpfoSKTRlx4xoTR9j1E98/NBtyD1hjszuNtwqa0fqPCnUSHQiC+bORe2jKQP+FZH5n5OjiBRZarqz8uyAIw9NUoRsc6oHJ+opF1tAsizLlfVrnfpmrDO6Y6LSudpqLtVm4NpIDvglFphT0D6nZfWBrjUF5Mp9XlL61WMaM+9lxW72/DXqzqCbXNhyf2PNTovo4T4ZiTrnF7sCGM2f7WPCFjMt9QbaRng2UEAtrxgutZOp5taoZoAuFY6w8d6VJVF16VDcU4QRIdRoSGpSZXKrW8btdq1TXQsrJB9Nrr1C0J3qDWuP7xMhMFiNcKxXyniA8Kc2mOwKXeXtsGbifRYuUjktReMNStuhEnwpuRTNc2iD1I34hFn5oNarEvw2eKqY41SubXBxd5hrxPwjsoTJcgOm/SsSeppuq12hEHbDo41CTBOhnE/0LVCQ92qmjTgsQ0weQoFpCOgIZ2zoCwuEb154o+CQAP3+Y9UB2akFit31RKRSVruulXuU9VPJwpwS+0wlmPCyqIS8U74iN1d6ug0jPnsMYlVyxJzMdEVeHm6HWCvmg8AkN9QlSUqteui5f5CAw30aIkwHcpl45Z1b9mrIm3aa7mDNKpDo05cnZjAvrt/FS84gXZi5MGylwQlBjBz52mXiHTtI/K/W0We+a9Wv4z6wDYKJ+jIpQMhGo5fd8bN5dkf3ilWL9hRjQty2vXRfL/M7zg2LEvGjgzLZQvicjZlppERXwkWoTPSWd+EVa4csdstobhwhlt+kkyQQGIADz9b5NAJQRPfXmqWeC7VUchyTUt8CF119A0ap2GpwwL7Mwu6CZEt5Gmyz4aPjAZGvxv1SKgNS0sZha4whBDFQjbKdVctANDkK3R90nPhtxc/x/97ys+NdG9zEQrEklSiQG0cGPeatjDWO2K6eigXsET05h3KQSpNiQHMfHayfpWMSpcYlRtXG5Cbt9TRqiy5aTM3h/mSJ/1u59V/+bkKnzH62Q/aBhPYXIxEgubt/L1rB+Oct/c5sroQ1o55NC6xZmr8BUFAgH0eIwjt3aKjlN18+Pgw5rjEtHPPb/IXsLv365NODOBcpRqJDDnFSKSWdZaqLOC//KRGSvwtf5SXeqbQPSxNrP6Hg9j9Owrls9cAf/4UXTGhrPXDTfZq/CPc6MjP6dx80s4fbaG3AT6sfMp1Kvkr50iCkgV4e42b65eLt6WXznVd+uY33goY6LIvPhTEH1eisQh5B40xXqsuykYJp7FEue+8Zlgo6lUlpV+EP+ZmvGUIme6IBVSmKwRP2muXxth6VfrYIAC7laaxCDP8MTcheSb19eaVq6OLjieQPlfue/XXl933F0szqokeJWAeGYD2NuS2EA0OcLGOKHedhWPEZcEN6Ci+/KS/fupEfDYAMcVs2WDmcebUtJB+X7VLXfoYXROdk9EXpvXvKKtT6ZiAAAwclSIWpyFd46tGWAwT7BydnHLfezN8t7bOa3IEIwmz/qfHwdE6i/l0wTQjnNVHSCK4b9y5Rn2KUjLCGS5NFrY1xDQTpU7hPDUHMJYpzIXhkcNKASxLANhC51GWjNiFabZRqDl3/9oIT/Za1CNbKBGmG5b2mQYYpczbCG2UG16ZSL2wYLlWtqjlJp0vMYDZcgEBI85KfALZsOxYqdOqESw32ekXVFQFQ9clZhqLkCWAQIeGdUclnAvEWNlISYSgOSrhEgcWBo08mEUPHZ9vIMF4gy4b3rmnVB2GnGo2fKmL3bzUe917iQDMGp0z9IvGaoOp8cmbSy/IIh8dPHBsUDXm1/sUqCiLzviYYK12RPNhsGdlOVMjAtuoc9QteGxQLoBO+m00LsCHdfx3VNdWgw3Eh4FZdeY9eqLTRjGCE7AlBJY75nPMlHaBerFn6no9EYAnXqoCyoCgShvXmLBXzHYIQ4wy2BzhLuzGPkB1VdffiiXprl/Gs80SSI+Z0u7CQ+l8JOia6NgAl2OzWm7HHupfVh2V1YH2oyA/5kVGIdJyVNqjpzFTWvs5z8HSCfPF/LhW07gUAZXFati94VTuVMAgmHp91BLj5UsEYMAbqyOqkLuvXPUIQ334z3UTWpC0TzivsLuvXLkAwt4fdVn6ifnxxB/me7TKlcd9hEPs1YBbzqkR5X2F8iQCsC2IETLsdLP0xF4rduRLh5WzZKW+hCF/6GcDr1Sp9xGgzu7vcZwLhd7H3My8jHm0kEoXfgb/8fQbDHcJ36vkeaIAU1EazgagqDz8jE3r9sqede7DWIHBYMVCIxAtmaWZS8xbcRtN7BabpiCVo0+zSw9zLs6GjSoZL1+gHqaZle9gzKH8GBfldlYhkHKZo3NGEsqdpx+Tlrt8btwW1S1/4gDXrVrBU1iSciDxcWhn8XHkQNJ5HYn1tdnmQwmeqEyKOR13Xg6k3fXjUJCQlFGbbLlRN2KrTI3q9paaBZjRjkeonLEDiRlVDAd9JaxZWK/YELzcJqTM1Yuma7m317Y1q+YARgdmszLcjFYvjfLtEiDAL60gtNSFYK3Dz46/uQoSMpasKBEcdalXfZ9JDGDmHSTDOBGOqA4462HJlhih/MYgrHjtikDFInoDFQs7td0+gWdYXfDQNeVDfOz7OWI1G39hvhSMTvvK09tVHVWxcqpOG/PT8KhY4UAGjCL4k+NIw5TrRre4dapUOhGAGXnsU4FLkAiJKN6X3TrrMxfkB9sh2eL8L+U1QpfGbu1GcBBsN+kK7bx15buJ5wHXDbZDkgesUnMs+i/l7tiIRYvCAcFOtm5oULEaYAziY8aGjhSfFDUZ0/fiiyv9cvbXIAiOsBiUegzxqCOMxjAh2fK7R+iRNpYK/RCVCXDLOQ8Idp/7mFFNcK5DGDtY68SzlFtoVGF4QKUhyM/ug0k+AubY+IwRW4qwjc/TcttqWZ16mJwIhLSbUcmPbhUqFxXqsInm42AEd+9nBgC7CSVBiYxgohkA2dqUqTjBbCtUNcHumnMYqDGkw94m6tJdhpILtru68BYJ5TqAeZtt+N25G+sVUu8a2KymcVTwA9GMeDfCA0DZ4r8u+jAyQ/iXWhjFWMawauXYu4LJaCdAz+0XNAJMo1i9kqBEAKaiNASrksv6yjUAh8Lkqwo4Fso96NwnUhKvkN09wLlVNMlyUMCtj2+XJS6E3lpuULQw5wY6MT/pE3WfLufRyMnEAKYGjJB+I4xkatlYuGawY2zPOM9ROwqx8fAz5c7hCFjR2A6xQ/fCuSn3zUVm2QlqViF2WvjJ4lcRErGrDxqrWxd3KZyP9sHJCOVFeEyaEgXYrTzhNliU2ugRWzVhpAhfKxfqnLXezVnZNDvWEnyfC/dRAGCJhM+u1E4mnRQRPAAX22HJ0rJwftDecnJFJevUYABXstLZu6L3QOPoWbOcaeyBDOA0ohajzhnAMTorjVkzgNOIWow6ZwDH6Kw0Zs0ATiNqMeqcARyjs9KYNQM4jajFqHMGcIzOSmPWDOA0ohajzhnAMTorjVkzgNOIWow6ZwDH6Kw0Zs0ATiNqMeqcARyjs9KYNQM4jajFqHMGcIzOSmPWDOA0ohajzhnAMTorjVkzgNOIWow6ZwDH6Kwsa9YDNdcD/weq94vsgUqXjgAAAABJRU5ErkJggg==;" vertex="1" parent="yJP6CHm6dHVeqmvsgXed-1">
          <mxGeometry x="342" y="40" width="78.69" height="80" as="geometry" />
        </mxCell>
        <mxCell id="yJP6CHm6dHVeqmvsgXed-10" value="Amazon MSK Connect" style="shape=image;verticalLabelPosition=bottom;labelBackgroundColor=default;verticalAlign=top;aspect=fixed;imageAspect=0;image=data:image/png,iVBORw0KGgoAAAANSUhEUgAAAEoAAABKCAYAAAAc0MJxAAAAAXNSR0IArs4c6QAAAHhlWElmTU0AKgAAAAgABAEaAAUAAAABAAAAPgEbAAUAAAABAAAARgEoAAMAAAABAAIAAIdpAAQAAAABAAAATgAAAAAAAACQAAAAAQAAAJAAAAABAAOgAQADAAAAAQABAACgAgAEAAAAAQAAAEqgAwAEAAAAAQAAAEoAAAAA7EA96QAAAAlwSFlzAAAWJQAAFiUBSVIk8AAADupJREFUeAHtmwtwlNUVx8+3mwBJAC2tSsFHLaij+Ooooi1apUgIjzCjOLZTB6qoVaeKKAlvWB4CSXBQtNpalVGwTqtOJbwCRLA+C5TxNcoUg0AVWq2KYBIIIbn9nS97N99udje7G7KLM7nDcl/nnHvO/57v3vPd+0WkI3Ug0IFABwIdCHznEXCOFwsCI01ujiOD/SJnqU4NIh8fMlIZWOnUHg86ZhyoG8T4BxTKFCNS7DjSzQuKMfItCpZuLpcFL4gDdplLGQUq0M906tpXyjE/vxUI1lVXSWHgQ+dIK3Tt1u1rN8kJCM7rIw9CFgIJD/qosVEW60/LHhH5QVpPU3qLGfOo0hHmLJ9ftmMuy5IIwASKymWOiMNT6LY4ZYUyi8dxVlNdGhob5NziVc7HwXpas4x5lOOTX2KpBWltUbkzuxkkxcAxtAUAcG0QEX+QJ1hNb5YxoMSRi6ypgLHMllvkRpaH2jw8obY0FTIHlJG8kI2O7A+VIwrGka9DTV6eUGN6ChkDirXnM2siC2V/W47MvX1enki69q5nDKhGI+tDxjkyft4Qc1qoHiy4bfTZ9jAe25imPGO73u2XmOyzexMCONI3aOun7GpFtQ1Ni3euXwrYFcvoawLQSNWOvXLeE9uc+jRhEzZMxoBSLcpGmCvYyTYBVucwrSIrRuqONsigyaudtyK70lXP2KOnBjb6ZA9ZXQLG1jl+2Z0AXbuRZBQoBn8Yb+qu1hFl7iFM2EqxOvjbom3apzQurVvJzH8Ze/TKCs1wdrFVrtlGDAv1NcUrnb97YVhUaK6i/ipAuXoC5AiC0NVemnSVM+JRZUNMHqb/3mPk0kiQtG9iufMa2dIQHTwub6ghfYWMAGW6yGxc5Aw1Ey/5X3WdFMUyWfuURvtdnhwJxKJtz/Z2ASpwtcmacIXJiaZ46TBzMQaHYiNege8PrHOao+8IJu1TmlCzkXtVRqjuKeiYOran6ZgV3Wf/WEgrKTCnOlkylO1+KPIGI3j2xBXOYq/sgBhf11HyNm2XaTuespE15xdemljlRaNMJX2Wdkv1CrkiIE6jlx6aCdRnIreS3aGijt/0Vc5eL02q5ZTR10O3nDPlSoJCBWYowJwfpoSRAuphQOUVyl20uSBhSJ1plDvCeOJUCEbvZBLeZwPoojJcWeXyqJeFXVL1OBGa0Tyno5UQ8D4AuAoFruYTeSPVw7+kPGrBcPPjbPUYRwpQ6hoUan6xRSkU2o/ASqa5gv6KSeXOPmtISaHpxZnKdnibwgEjM/GmubY/kZydcgZjznFpjRzkbPhc7xjzRpjenXySjw4F0A2G7kSvXPSrYfyN5Gt5nCuKVjq7vP3xygkBxTZ9B4bfx+Duwb8VSFsjM7WNekVDg1RsWy2bY51tl40yLzLY9coL3/aaKrk42dlVL87rK+8i59ygnJeKVjijtRyZ9Cy+f6FcTrt6mf4uASSysLQDZRazu/4hrDVKJZIxCgmn+4XmFp8jT4V1GnmnvkFGT1ntfBLWHqVSOtKM8PlkpdtFzER+dXDrj0IdvykytuLYeCShRVM8Foe1tMD0cTqJTlbYRsDjfyueFW5bFDkJARUoMN3zsuVzPEof+1DC4q9w49JaI4/GulZy454u8hG8p7uMRp4GpHEhISkUAOspfOMWZUWHPXJI+hWtd2qiidJrsFxHfsf4xRj7fS8Nuh9uqJWekyudA972aOWEwoPAWucgA62IFKAD42klXR35BK8bz9YcBqTSN3aRE8iqtIxicWMmpUkkeWMrkNoZHCOMVXVRnVQ31TESpCBxeSIgKW1CHqWE3scHg6fCOQ7mPtoXSkb2spA/ULVXnow8DikdZcYwK7WEDC+G6NtQYDcbzVi5xSucZ71idB3L7SPjGGsaOvb29uF9OwH2KSZ9vrYn+tgqbcJAaSCX1132MchJDFBU+608RP1mZEynremxUolNaTfvbnNrD8qzgVedo7axPXPVL7e7jEGXmRh1hncsJvbf1OfVHJSlud3kXtbLMgD7kvOtXpET6uXzlhMGSpmYxSVkdzPw+2ztF2mbO4N95Ta226ko2UvbQonDNrbwwKFyeT4yOAzRtLEQIIjNKZRf+RmHae/rFYee+zhzn19bJX+yOywhxnvoeSF9j2LD3V76eOWkgCoZYS7z+2WzCmSgixjofStc1wQ87C6UnYTQk227S0s4AP2s4nLhsQPSY5KMU1ooozF6NuO54YIVywBf4DEleNBjePRh2w5IF0L/ntYJZwZMWuVssX2t5UkBpcLwqn+RnY0yi4hhWrzMBne5e1BoInQ9lCeUjLyHh80kSNRr9JQTwWshHjSHSXG92iPoayZkkRyWJdF2QWK5MgxWvXawVp7j4Wu1mDxQhWY6Cs5FoX015XJarEcqGFJMgHYCg+jOF0rwbm1wZMbkFc66UGMChYWjTL6ftY9J6O8lZ9IO4EGLa+plse7Q3j5b1keU155P4e3F+Em/FSQNVNlIcyaD7QQAfYauxav0ZTVm4rXne1l+KYJH14OuXkIUfpOdawYetsnbHlnGg65hF1OAfhbRV42MRzhPLyPw3R/RF1bFm/RFfQOAGnj6JPP6ooKSBkqZCPheh3MgAz7LOjVW2zQRtyzCoG5E7JMjFZ9fYE7KzpbJGHsnpDkuQ/A/5GxkzZgReXmwcLj5KWuiAjTIS0/5EDyP19fLwqlrHfesyvbrxGT7ZSGL+EHv0sD69AxyxgDUGwS8V1r6RPNUTw+W4U0XMEjoHGlBofkJgd29tPlRdNTCkeayySsd3ZbdFDTo/gfyzaJOnd047HZmqZN2KhBZWTIIYyrUw7Qt6EFDtWwTYx7B0CeO1Mn8aeuc/9h2mzPm6VmObGEST0F2A+dWzxWvcd7Vfur74T9AvszSJ5PDl3zSHe6rHDGPrHXcG5Tg8/8PDHbXDma7Ek+7Np5kvdzs3MUF5Wb44k4Y8jQWW1p3WOZOX+98Gk8uYG9A3mClgW8r6+jldh1VvbXduxNqPZGUElCRgona7yaIW6LtKHcYqy6YUu5URdJFq+vRDWvYTIy7iX42s7DUgLzlrEFzEnn5Vk48uy+of4A8FxSC43t4aX4kTGoKlTYDpWdAnX2yHcW66fi493TWhgeS1YUF+xxQelLXPpeXtYRQ4lYWeg1Hkkos3NMwbJ7LxLnV4UY5r60nnSwFbUuAtMQDkp4zlaUiUQEB5Fcsr5ZTAUn5VQf49SM1XZy6q45uuQ3/tQkorsRHAtJ17vi67R6V39pXhTbo1GZW1UF10VBAhamOqmtbBKcMlBuB+zxn1hzsFa92Xm+LMseS19XFe9iIrm25E0wZKJbKOcyUe2rAtH1RfVgmHUtDj4Us1Ul1U1muruicqtyUgNKYiYHH20E5Urkv3t2cpUt3rjqpbnZc1Vl1t/Vk8rjxiwp6oNCcAtFgn5FTmZ1a3lv+SbMuju5WzvZdyaL7nNIej0l1I7b6DSANRj8/tvyR9Wo8kful7Iy5jXz5RzhTOa3c+Tye/jGB4qz5B3kO34ET3yDQp6Et/8JSMGbSV5LjOgHEnVmmKbYCsP5M8VvWFp1tHqtGwFxWY2QiZ/9fRjMm6qO3aJg5A5C2IHSMC1I0Tm1zZEOigWUsEelod3VE11hjqY3YOlZtVtuj0bUASu/DTLa8DOOZlgHP2chjV6LvWXZx1D4GGKln15bueM15Wb9BdbX6uTY02VKittl2tVltVwxsm81bPHpcGo5FqHv3pY8W917X89cCaywD70v3550gf4FmmLZBU4rgv8W6+LR8mcrVaF7WS+34gLSm5oDcyPtetW3jryiGcV3/EkB1UdsVgxfK5Wnbr3kLoCD8tSVA6CwvSNquAwDWjYC1E9qTdRb466jbLhX35NOyJpw3HpFdUyqc3fEY9AyMRfdH8Whi9eEaepLp8qonRYKkfGojXjcLe0q0Tq4YxAcKqtDxan1d9CMJBYvFbwW0t6lg8sdb+Krb0fp/vk4yG6pAXErWD3/z38TEJY3XyY79steTvLSAuJy6C5QXA0vTYo1iHQp9eAFQsU8NvX9RYKUd5zkhQUx7Dh1sPlvzYmBNivbofUZnXyXIzXPPl163xGG5oQ8fdROXBuShQ7xga0IZIna1RujSGD6zTi31CHmI6hwjBW11exlPMQhLLYAC9fUQukDx7dN8PpwfFHlJ6C5+zcezDZze5bcWsIWNmmSFo9tnYNFf0kkD5s4ie2H0s54OUt0j11394wA+z15ghSsGtmzzFkBxDv1wdpbcjtAsZmLgWb1lU2lPM6W2RrbmdJcegKgB6GwrgF1veXuCZMdJNVfdWE+XY89YlaG7my7cuibp46aepCDR715cYM9RdvqHIsdrsUZNXePsAIjJllAF+LLkta4nyCEW1L3uBw/NX7XsrqlrfpeyPK3lC0eY0IbRGm1kfyq8QR13qyzs6aI2qC1qk9pmQXL7sR2P+1jL3tQCKO3E1R9kQZuo6HqJw8p8H3W0UX6e7Muw3tRw9LuNm5ymc6wwofErHDlfr7wqIz5leK+rY71cjU3vhPc011xbsdm1vbk5VIoKlPYqQ/1R6YeLPsYAVfz0IuEb8k28kY/jA4cB3luWkMQ4Bf1ql9nUqyI/68DzetcWhzysy72X88mflRePHxjrq+MwJk9l4hpnj+qsuqsNdKktdfyq1EYet/NigaRiGDO9KZBvenTtLK8xcj9GrkbJwZyxb1YtWEsCPAaztMwMz+YmJ6BlQBqAQa/Ql0f+Id9HXZWsJ6uctqSYHtUWofF41UAuDYYAxC7o+M5L1nAfp6BFTWXDzflKoyApj/KmGyRVLO0eZdFwv6nMljcAoCcA7MNTBqLNWK9H0fYMu9Sb8PwQmv+aehlYvNbZaWWkM0+7R1njggbnU/8GcHpxKLQBoHrafi3TXkldQdrfcFSGZAok1SljHmUBCX5foLe7ubbNmwNSDR9pX1u0ynnb257ucsY8yhqqH2bwCZCGCvW2zeYs9EcA6rpMg6T6ZBwoVUK/k2J7vglgGrWuScuAdBPX4S1eJ5oo0vv/cQGUmsz3Sn/lGKT5/N3IHcXlzgvpheM7NBqHdJOIvIu/Qyp3qNqBQAcCHQhkHIH/AwxOZthbi6SjAAAAAElFTkSuQmCC;" vertex="1" parent="yJP6CHm6dHVeqmvsgXed-1">
          <mxGeometry x="501" y="53" width="54" height="54" as="geometry" />
        </mxCell>
        <mxCell id="yJP6CHm6dHVeqmvsgXed-18" value="Apach Debezium Connector" style="text;html=1;strokeColor=none;fillColor=none;align=center;verticalAlign=middle;whiteSpace=wrap;rounded=0;" vertex="1" parent="yJP6CHm6dHVeqmvsgXed-1">
          <mxGeometry x="151.5" y="122" width="154" height="30" as="geometry" />
        </mxCell>
        <mxCell id="yJP6CHm6dHVeqmvsgXed-20" value="Confluent Connector" style="text;html=1;strokeColor=none;fillColor=none;align=center;verticalAlign=middle;whiteSpace=wrap;rounded=0;" vertex="1" parent="yJP6CHm6dHVeqmvsgXed-1">
          <mxGeometry x="451" y="122" width="154" height="30" as="geometry" />
        </mxCell>
        <mxCell id="yJP6CHm6dHVeqmvsgXed-2" value="On-Premise" style="sketch=0;outlineConnect=0;gradientColor=none;html=1;whiteSpace=wrap;fontSize=12;fontStyle=0;shape=mxgraph.aws4.group;grIcon=mxgraph.aws4.group_on_premise;strokeColor=#858B94;fillColor=none;verticalAlign=top;align=left;spacingLeft=30;fontColor=#858B94;dashed=0;" vertex="1" parent="1">
          <mxGeometry x="770" y="120" width="160" height="170" as="geometry" />
        </mxCell>
        <mxCell id="yJP6CHm6dHVeqmvsgXed-11" value="" style="shape=image;verticalLabelPosition=bottom;labelBackgroundColor=default;verticalAlign=top;aspect=fixed;imageAspect=0;image=data:image/png,iVBORw0KGgoAAAANSUhEUgAAAEgAAABICAYAAABV7bNHAAAAAXNSR0IArs4c6QAAAHhlWElmTU0AKgAAAAgABAEaAAUAAAABAAAAPgEbAAUAAAABAAAARgEoAAMAAAABAAIAAIdpAAQAAAABAAAATgAAAAAAAACQAAAAAQAAAJAAAAABAAOgAQADAAAAAQABAACgAgAEAAAAAQAAAEigAwAEAAAAAQAAAEgAAAAAQrz+TgAAAAlwSFlzAAAWJQAAFiUBSVIk8AAADy5JREFUeAHtXHlwVEUa7+43k8yEcEQOAZGEZAKCK5lgMJMASrzAA111FXR3Xcsq3fJC1NraKnVL1qNW/WNLV8VVa7dWt5Rd3EMUYVlZKTGEiSYkETwgkwvwQBAxQK6Z172/7828yZs3RxKNyKTSVZM+v+/193vdX3/9db8wNhyGERhG4HtEgKfivYatyZhaOP2nXLErGeNFjKuJiJ2paE70OqVYF+T4HHL4pVSvljd5X0OfVbJ+JwXI76m/kHH2HGc8LxnxUCgHYNulDN5Q3lyyI5E8CQHyF9TfDHBWcc61RERDrQzD5yhj8kpfY/FbdtniADJGDmPrTXCA8H7F1ONK6a/vaFJtv2QlQTuTdMpvztvsyhQjC7lwLhNc3YmpNoL6r5RqD+nBs+a3zN1llScGoIjO2WVOK4Dj7+wILqn4rOSglWiopN/Nr5/u1NjGqLyMbfI1Fl1glU9YM4ZCZjyPymjkDGVwSMYFzd7duuRLIK0xKzBazt+W11BKdWaIASi8WoWraFoN1ZFjCk/xvKainRgMfzXLhENdYaYpjgHIWMojtZKF1lobDuW0YtIqq9cqq8Oaidg5RtHOANsTU5cgs96zPjObTRz1RSBw6Bp2jZ6gyfdetM3TcAvn7Fp6kNSDtyVbrlN1ROisjUWQUJzB1usNsQBZjMBUq1W1p+5qxcSv0bEziVVu4YyealW/UZeh+75NB3u7M/AU5zKfM7GAKAVzjB44B2ggjQWjq5ViMYawbYr1zb7a0/AA42KNCU6EIoNxvkQIR3WVZ/s5fXNJnxYDAqiqoK4coj1giKfUAdgO18sg8yF+EMa6hO3kFly8vHn85uz0gSB1T61TLDrKkpEIzn8FC9top3N2Y3mjd12kbbXf0zAOFbei+hT3qJzr2AH2PNVtLWiYoPHODCTbfQFf++bJNeMy3M6JtHpQfeW4ypGO0dklUqhJQqmekJTvzW8uidN/K9lKschzqVdJkYNVJzCvZU4b0fcR+Nb8uhIHUx5diEOsq2NL+b7yzj5oYqr7PYI2s80OCH9RmFodBDhvWjlJXb1o5jH9YFuEg0OodRhYexlzPQHdda97hONzjav/UW21p/4uZ87Ig1zwtzUmXsbO5lWncLZsK2hYHiE3oqpp9Wdd5Llit+DOWk3TNjkcWitoH7W2sac3nVI9Fm0qHZp4j2naKxrn/9FcI3b58+sK7W1DTBgv3V5O+X4D5PaMno6xk0lEeIO0sYvZAXerrz+gunDgs82UGQPc66C7HkEcHbWwtbyYnl1oswU814JxB54hsAX4XdWUKjfR0ggUDr4B5QVhXtiJK7ZHcT41nE/8N9vt+hP0IqmEr9DVp8B/H3icyjTxhJ3CwWSMLNb6fgOEKTXOJISQcVuPitaKLjwFmz4KKto2nMdfgCulvF9X+kIm2VVUzoNiZUMgNK60segcX6Dox4rxh432nGexjAwPpTFsb8HrPYnSRF/a6J1cGijK/aad3URliUJlfs1U0FxGdXBp3Aaa5TCC76M8ys9/jtXErFSpRlD0bYI2KYoGYx3LX2RvD1shRGX2wJUK4a1RL2I6YLSDEi9rKn7ESlPaVtRizaPJHgygSHPNZSQ4O5dijLaQ6u78vVGGP4v2Fx0z0/ZY444y9AEdAV03q6RY53qbFhYgY2YuXnYbg08oHMIjKCKcWRitsxUky+LttvfWqVG96WiKA7hso1cxbaP1cQnaWbu1nHux+l2kuHKCtsfeCMCcGpH1y/4qWM7VJGOsgJnm5s3VhQ1IoXdmcIqEL9istsbWEWQtj0vzns4m5jY8A/RyjOFvbVSd25CHvMEPQgWsdcnSWY6TXgKzq416xT6CXgEYsQGoa8ZYUFzG1qTImTRogr7UYXpFrHyaJDx4dmBOnIpIxq3fOghv7xDYfxxhNOPdqe/nW5lKJ1sczavwsI7mEyS25NZMMsFRkj3pC3hP57p+u70pnnkgUjYO7pjE88BGhBdo0jDew68tDXjn9f6KFqI5IdWvYAXI/vLiGUj2Z7PQmen8A/mPKL912vZcDOv7jTq8MilDL5rtksWZQkww63hkxOlYi80yM4Zee5/SqHFNKSxcapZTEaWV7B1ZmKpGf4Jc1ZrtpFNdY6YpJnPFmqd0f5W0nS4uf4h/+tRYNfkG9PZ0vKVLcj0z2vysvgkN5yBvLMvY8D7dn/1Yh+JtbrgpyXMJ7bAcW5ixwDZuZZI89IJQTnIBC8H4i/B43oRnYeapz32NXmxS+afRjgr2wraCuofKAt6/gN820JTBuH0U9lAF5mcjRkMu2hexAMX9C9YR1OewuzhwcXewW14Ie6XKYI+dLwSch5+bJjtsjVVtjbvv6s+jK1qLD2NUrKK2oC+EMCvB40M7bVmgZDtWtztQ3gNgHGi7EG3PAZXRXy47/44Hfxmhy0e9YR/pKnQ9utRilHO+CEDdjgctAbBxuiyVHWQdbnHD295Zys/fO+czirApPRvacx46OoreZlDyDeShs9Moqd+CtYTaxL2ADY2vrVjsuWwL7NVZkrPt5QHvOtrsCiWEaj/2icnLFyheVTWlfq1wYclXzC2VbNrXHHiX6n0tvv2wmmdluTLRH6Vkdyf4MVbedGYAq+SsLMeYJVLxGQBOh67+8GCH3ET11kBTLN4uCbeIAQXLYVQIGG8xdVaGQy3t92yfhZlujF6Mxo9owTBltE4xs2w4tiBgnWKW4vRLvjG5JisnyzHNIVUulP4E6LcsGLcurJDd0D0dmHxfYZK1ho50tsw/OP9IfyVMW4BoP1WUr13ANH45jOQy6IPTaaVDHlE4hOPIX9ibZMY6x4xU1TkNpCv90CdvyM5j67tV6IiLi38bVJztjZAbUdoBRP4jbfSI5UIIWi3HRoSyypQ6HcZvBhrNAHS/EO4RR11KPdNxLHRzolMcE2yD6YmupP2eWh+GwauYPlPiUVBBTKkmLJatmGJfYFR1YHqRh4FcNFkYVhNgGOSijYeMTjs92h3CivuzsqY5G6x1aTOCKqe9PwNm0H/xRkeaApCdoxRfDXN6fZd+uJZcLmZdspim5o/yNS/sokUA6los/7OoLfiexIVYC7fywvKm4rCdh/K0AcihOX/bC446KJVasTGwdvVKtjLO8EsGDpUbpzXNjLYv9Hu4qrD+UpjyzwAhGJjcCXP9MZQbpySI0wcgCHAWdZiCruRPygNz3gnnvttf8qtXFdR+Ah9SI3GCioo+h/LpZAcZ7t5wp8Udfo8/kU+KqgcU6PATjrR7LETGhtfMp80UMztMMfTGVUq5528rqH9ahPjLds+ktW2yNLlbMp2OZVDOd2KnkZusXVoCRMJAwZ4MoB5iGewhf2HDx9iGkV2zE/7uVuxj90udHeNM79K4yAxpLAv7xgmYP3mgnAlyH9wBs2k+Qa+lDGkJELa9+wkgUzIIOROizjSEhT0IEMg3ghDWIAmFtCBj50eUZkgnHWT2Ge576cMqthSCrcXm0uIrjzbpO0FHTEpthKlwo+w6Ni0ZQUJwkzU+UcpViAfLW71r0J815Iad6imYy5WGW7hsOgzBAowuOn3NRt4Nw7ELvu6jiL+BAdkMUHbrXO34NBDw40ZK9JAg7NiPlzCdAIKKiQ/GtZsA86OGfoMe0nKKDToKKRgOA5QCHKpKJ4Ci645wqcv7kGtA1X5PXVJ+6QRQVGjOxTP+wvrVVfk1Z0QLv0Viq6emAHz+CKPgX8nI00lJx8gAG2+ZpjmXwUj8ACvTepyQ+XWm76S7lYmuD9J5mCtvzBSmqZkA2IcVbjGMxblgGvYQxXDvzaQtQKYImHewiOm6DcfOWzCvh8lqXn+I/EEAzfAHoQ3cr3BnwDNv0hlxdNLGlMZk0nKKwb+MqzJsNYzEzhhpKENuV8bHIZ4K4KYDlFzE4+PAMQjhZCNjU6pz4/hECtJyBMkuXlO+r2gt3Q5xidHz4eg6D4MB95t5Ic7fcjFn4uXC6SOsZvI370bbHci93XHk8DsVByqMO01DwVCMe8kRDyIdBEYPA8myHp9XONLt6M4OSleWxLUUEew+GtoTOlLBKkJxTPooiEe6D4IfsDqhJW3vj2FZt7LDKKffdw5pqYO+s9QDYJBOAEXXHC1T0fI8aKEyf3tJMmbpBFCvDFz8DV9FPoibsMblzt6KgaU2ntwwAnzucWja28ko00kH9cqAG7NYtn+jubLuwX0hOseCoSj9ewKBXX18VMPhoIc7RJRipVuMc7MlMAFSft+RngCZUOG6MOYdXSnGT8NHNdOD1axhL67I7Ifv55jhC8LBIdqMgIYfD1BgG4Xvepss+orTEyCl7obNg4vpzKY7jGs++SjHF0AI8JyZisuM7YDQdRcA+iRu+z9nr6N8WuogvYutwWXyuUqX02H93Qoh/wkhmxBHbrMmEhVlZCwq1Ya92zr87tb14Gy6C+Rr8j6fhCL24BBmdxdAN86tyUrtz1FuMsbHo9zXXEyHffR7lp4XufGRhxtlOZrg2TiSduvYj3GpHdV5z+F27UArXSOktv0NsVMs/B8JphExfTqNaEd/GZ0I7SLHysYJ6WD1xzbFeNSvC1fC0sF6yCDxib555ZI4Rx+8QN92WLhFHflUFgMQ/S8LsyG0/p30XbmZ/6FjXF2hywZGwKdTr+FUdSkuLsT036wfSFxV0LDYoTneMWmgo6LPoTK7cue4U1wL7V9Mldj9ttJ35ebHb1T2Q4VtubUzeYbjPXQ4+jUjhAmgP6/gGGj93tZdddZjnGT9JMdZpifnDNy5Xgzpl4EffEnhAHlD+GihwtfsrTTL7AAx/7Ta2czh2NrbERXESvESDLHX6etg+gDWJD5eMQzAAAmPS+Lz8DEZRjmfFPdsxTAFFemfVtR/AbdHB25Ed2GhzwQQWSjH0bPKw0jEnWx8bmUPSh3GJ18/t3xFabSIA4hK/YV1F8Aj9w9Yq4Nyg8Lel4Hmg6Ge08z/qfFWfs3oUcK5AmCsgKBjBsorrj1OWKFOntUVfxwz5Ut7fUKAqFFVXs1pmtP5NJLn2YmOd94KkPlsuraSwyYuggPxcgBVhpFxGkZKUnlMOoojU9O4xNl+hL+Z6tuzPhka/8tCU1fiq84imO8ToZiSXUq39mFQ0/iU7pKy1uLWVEzpcqdzZFa+xI4DU2wCUyJLCOnC6OjGVMMo4Qc5D7WFejpbFuxZ8HUqXsN1wwgMI3DcEPg/LJdGQOE1oWYAAAAASUVORK5CYII=;" vertex="1" parent="1">
          <mxGeometry x="810" y="160" width="80" height="80" as="geometry" />
        </mxCell>
        <mxCell id="yJP6CHm6dHVeqmvsgXed-16" style="edgeStyle=orthogonalEdgeStyle;rounded=0;orthogonalLoop=1;jettySize=auto;html=1;" edge="1" parent="1" source="yJP6CHm6dHVeqmvsgXed-10" target="yJP6CHm6dHVeqmvsgXed-11">
          <mxGeometry relative="1" as="geometry" />
        </mxCell>
      </root>
    </mxGraphModel>
  </diagram>
</mxfile>
